<svg display="none" xmlns="http://www.w3.org/2000/svg">
 <symbol id="mastodon-svg-logo-full" viewBox="0 0 713.4 175.9" id=".32240464310897554" xmlns="http://www.w3.org/2000/svg">
 <path class="ast0" d="M176.8 121.4c-49.8 103-195.3 39-158.3-64.8C67-50.1 217.4 16.3 176.8 121.4z" fill="#fff"/>
 <path class="ast0" d="M176.8 121.4c-49.8 103-195.3 39-158.3-64.8C67-50.1 217.4 16.3 176.8 121.4z" fill="#fff"/>
 <path class="ast0" d="M176.8 121.4c-49.8 103-195.3 39-158.3-64.8C67-50.1 217.4 16.3 176.8 121.4z" fill="#fff"/>
 <path class="ast1" d="M99.6 175.2c-11.6 0-23.4-2.4-34.6-7.1-9.8-4.1-18.8-9.8-26.5-16.9-8-7.3-14.4-15.9-19.1-25.4-10.3-21-11.1-45.2-2.3-69.8v-.1c11.4-25 29.2-42.5 51.6-50.4C78.7 2 89.4.4 100.4.9c10.5.5 20.9 2.9 30.9 7 10 4.2 19 10 26.9 17.2 8.1 7.5 14.6 16.2 19.2 25.9 10.2 21.5 10.6 46 1 70.9l-.1.1c-11.7 24.2-29.6 41-51.6 48.7-8.8 3-17.9 4.5-27.1 4.5zM20 57.2c-18.9 53.1 10.7 93.3 46.2 108.1 10.6 4.4 22.1 6.9 33.8 6.9 28.5 0 57.7-14.6 75.5-51.4 20.7-53.8-9-94.7-45.3-110C94.1-4.3 44.3 3.8 20 57.2zm156.8 64.2z" fill="#371a45"/>
 <g class="ast2" opacity=".35">
 <path class="ast1" d="M176.8 121.4c-41.4 89.7-169.2 55.1-164-39.8 8.3 29.9 18.9 30.2 36.2 44.2 53.5 46.4 127.4 2.5 131.8-59.7 4.9 18.7 3.3 38.1-4 55.3z" fill="#371a45"/>
 </g>
 <path class="ast3" d="M99.6 175.9c-11.7 0-23.6-2.4-34.9-7.1-9.9-4.1-18.9-9.9-26.7-17-8.1-7.4-14.5-16-19.2-25.6C8.4 105 7.6 80.7 16.5 55.8v-.2C28 30.5 45.9 12.9 68.5 4.9 78.6 1.3 89.4-.3 100.4.3c10.6.5 21.1 2.9 31.1 7.1 10.1 4.2 19.2 10.1 27.1 17.4 8.2 7.5 14.7 16.3 19.3 26 10.3 21.6 10.7 46.3 1 71.4v.2c-11.8 24.4-29.8 41.3-52 49-8.8 3-18 4.5-27.3 4.5zm-79-118.5C1.8 110.1 31.2 150 66.4 164.7c36 15.1 83.5 7.3 108.5-44.2 20.5-53.4-8.9-94-45-109.1-35.8-15-85.2-7-109.3 46zm156.2 64z" fill="#293856"/>
 <path class="ast1" d="M99.6 175.9c-11.7 0-23.6-2.4-34.9-7.1-9.9-4.1-18.9-9.9-26.7-17-8.1-7.4-14.5-16-19.2-25.6C8.4 105 7.6 80.7 16.5 55.8v-.2C28 30.5 45.9 12.9 68.5 4.9 78.6 1.3 89.4-.3 100.4.3c10.6.5 21.1 2.9 31.1 7.1 10.1 4.2 19.2 10.1 27.1 17.4 8.2 7.5 14.7 16.3 19.3 26 10.3 21.6 10.7 46.3 1 71.4v.2c-11.8 24.4-29.8 41.3-52 49-8.8 3-18 4.5-27.3 4.5zm-79-118.5C1.8 110.1 31.2 150 66.4 164.7c36 15.1 83.5 7.3 108.5-44.2 20.5-53.4-8.9-94-45-109.1-35.8-15-85.2-7-109.3 46zm156.2 64z" fill="#371a45"/>
 <path class="ast1" d="M165.8 140.3C87.4 203.2.3 113.8 56.9 46.4c68-71.5 167.7 10.3 108.9 93.9z" fill="#371a45"/>
 <path class="ast4" d="M180.2 78.1C193.5 168 66.1 194 40.4 113.9c48.1 42.4 122 11.2 139.8-35.8z" fill="#21102b"/>
 <path class="ast1" d="M107.9 172.6c-8.3 0-16.5-1.4-24.6-4-8.9-3-17.2-7.4-24.7-13.2-7.6-5.9-14-13-19-21-5.3-8.5-8.8-17.7-10.5-27.5-1.8-10.5-1.5-21.4.9-32.6v-.1c2.8-11.4 8.1-22 15.7-31.5 7.2-9 16.5-16.8 26.8-22.6 10.4-5.8 21.9-9.6 33.4-11.1 12.2-1.5 24.1-.5 35.3 3.1l.2.1.2.1c19 9.9 33.2 27.2 40 48.9 6.4 20.5 5.4 42.8-2.7 61.1-5 11.1-11.4 20.6-18.9 28.2-7.1 7.2-15.1 12.7-23.9 16.4-8.3 3.5-17.2 5.4-26.4 5.6-.7.1-1.2.1-1.8.1zM34.3 75.2c-9.7 44.4 18 78.5 50.5 89.2 28.2 9.3 68.7 3.5 90.1-43.8 15-33.7 4.4-83.7-35.1-104.3-20.8-6.6-44.5-3.8-65 7.7-20.6 11.4-35.4 30.1-40.5 51.2zm142.5 46.2z" fill="#371a45"/>
 <path class="ast1" d="M110.1 163.9c-1.4 0-2.8 0-4.3-.1-18.6-1-36-9-49-22.3-12-12.3-19.2-28.1-20.2-44.6-1-18.2 5.4-36.2 18.6-51.9l.1-.1C71.4 28 90.4 18.3 110.2 17c17.8-1.2 35.4 4.4 49.3 15.9 14.3 11.7 23.4 28.3 25.7 46.7 2.6 20.5-3.6 42-17.7 62.1l-.2.3-.2.2c-17.8 14.2-37.4 21.7-57 21.7zm-51.6-116C30.7 81 39.2 117.2 60 138.4c22.9 23.4 63.9 32.5 104.2.4 29.5-42.1 16.8-82.7-7.4-102.5-24.5-20-64.3-24.2-98.3 11.6zm107.3 92.4z" fill="#371a45"/>
 <path class="ast0" d="M4.6 119.2c11.1 38.8 50.9 30.9 44-7.2-10.1-41-52.7-32.6-44 7.2z" fill="#fff"/>
 <g class="ast2" opacity=".35">
 <path class="ast1" d="M33.8 144.5c12-2.3 18.7-18.1 14.4-34.5-5.2 18.4-27.4-7.8-29.8-15.9-29.8 12-6.4 55.1 15.4 50.4z" fill="#371a45"/>
 </g>
 <path class="ast1" d="M30.2 147c-4.8 0-9.6-1.7-14-5-6.2-4.7-11-12.4-13.8-22.1v-.1c-2.1-9.5-1.5-18 1.7-24.7 3-6.1 7.9-10.3 14-11.7 3.1-.7 6.4-.7 9.6.1 3.3.8 6.5 2.4 9.4 4.7 6.3 5 11 13.1 13.6 23.3v.1c1.6 9.1.8 17.3-2.4 23.6-3 5.9-7.8 9.8-13.7 11.2-1.3.4-2.9.6-4.4.6zM6.7 118.7c5.5 19.2 17.9 25.6 27 23.5 4.6-1.1 8.4-4.2 10.8-8.9 2.8-5.4 3.4-12.6 2-20.7-2.3-9.3-6.5-16.5-12-20.9-4.8-3.8-10.2-5.2-15.3-4-4.8 1.1-8.7 4.4-11.1 9.3-2.7 5.7-3.2 13.2-1.4 21.7z" fill="#371a45"/>
 <path class="ast0" d="M3.3 121.7c9 31.4 39 26 33.4-4.8-8.1-33.7-40.6-27.8-33.4 4.8z" fill="#fff"/>
 <path class="ast1" d="M23.5 145c-3.9 0-7.8-1.5-11.3-4.4-4.9-4-8.7-10.3-11-18.3v-.1c-1.7-7.8-1.4-14.7.9-20.1 2.2-5.1 6-8.5 10.8-9.6 5-1.2 10.5.4 15.1 4.4 5 4.3 8.7 11.1 10.8 19.6v.1c1.3 7.4.8 14-1.5 19-2.2 4.8-6 8-10.5 9.1-1 .1-2.2.3-3.3.3zm-18-23.9c2.1 7.1 5.3 12.6 9.5 16 3.5 2.9 7.4 4 10.9 3.2 6.2-1.4 11.2-9.1 8.8-23-3.9-15.8-13.4-22.3-20.8-20.6-3.4.8-6.2 3.3-7.8 7.1-1.9 4.5-2.1 10.5-.6 17.3z" fill="#371a45"/>
 <g class="ast5" opacity=".5">
 <path class="ast0" d="M54.1 94.4c6.7 15.6 24.6 8.2 21-6.2-5.5-18-26.7-9.7-21 6.2z" fill="#fff"/>
 </g>
 <g class="ast5" opacity=".5">
 <path class="ast0" d="M67.3 118.6c2.9 5.8 10.8 2.7 8.2-3.9-2.9-5.8-10.8-2.8-8.2 3.9z" fill="#fff"/>
 </g>
 <g class="ast5" opacity=".5">
 <path class="ast0" d="M172.2 86.3c2.8-64.8-64-64.9-82.3-48.9 42.5-2.3 64.5 21.4 82.3 48.9z" fill="#fff"/>
 </g>
 <g class="ast2" opacity=".35">
 <path class="ast1" d="M39.3 123.9c0-4.6-1.2-9.2-3.4-13.3-3 22.4-26 15.6-33 .6-.8 32.7 33.7 43.6 36.4 12.7z" fill="#371a45"/>
 </g>
 <path class="ast1" d="M42.8 88.4c-1 0-2.2-.3-3.7-1.2-1-.6-1.4-2-.8-3 .6-1 2-1.4 3-.8.9.6 1.4.6 1.5.6.1-.1.5-.8.6-2.4.1-1.2-.1-2.4-.1-2.4-.1-1.2.7-2.3 1.9-2.4 1.2-.1 2.3.7 2.4 1.9 0 .1.2 1.6.1 3.3-.2 2.8-1.1 4.7-2.6 5.6-.5.4-1.3.8-2.3.8z" fill="#371a45"/>
 <path class="ast0" d="M225.1 74.4V113h-15.3V75.4c0-7.9-3.3-11.9-10-11.9-7.3 0-11.1 4.8-11.1 14.1v20.5h-15.2V77.6c0-9.5-3.7-14.1-11.1-14.1-6.7 0-10 4-10 11.9V113h-15.3V74.4c0-7.9 2-14.1 6.1-18.8 4.1-4.7 9.7-7 16.4-7 7.9 0 13.8 3 17.8 9l3.8 6.4 3.8-6.4c3.9-6.1 9.9-9 17.8-9 6.8 0 12.2 2.3 16.4 7 3.9 4.5 5.9 10.8 5.9 18.8m52.7 19.1c3.2-3.3 4.7-7.6 4.7-12.7s-1.5-9.3-4.7-12.5c-3.1-3.3-6.9-5-11.6-5s-8.5 1.6-11.6 5c-3.1 3.2-4.6 7.4-4.6 12.5s1.5 9.3 4.6 12.7c3.1 3.2 6.9 4.8 11.6 4.8 4.7.1 8.7-1.5 11.6-4.8m4.7-43.5h15.1v61.9h-15.1v-7.3c-4.6 6.1-10.8 9-19.1 9-7.9 0-14.6-3.1-20.2-9.4-5.5-6.3-8.3-14.1-8.3-23.3 0-9 2.8-16.8 8.3-23.2 5.6-6.3 12.3-9.6 20.2-9.6 8.2 0 14.6 3 19.1 9V50zm295 43.5c3.2-3.3 4.7-7.6 4.7-12.7s-1.5-9.3-4.7-12.5c-3.1-3.3-6.9-5-11.6-5s-8.5 1.6-11.6 5c-3.1 3.2-4.6 7.4-4.6 12.5s1.5 9.3 4.6 12.7c3.1 3.2 6.9 4.8 11.6 4.8 4.7.1 8.5-1.5 11.6-4.8m4.7-43.5h15.1v61.9h-15.1v-7.3c-4.6 6.1-10.8 9-19.1 9-7.9 0-14.6-3.1-20.2-9.4-5.5-6.3-8.3-14.1-8.3-23.3 0-9 2.8-16.8 8.3-23.2 5.6-6.3 12.3-9.6 20.2-9.6 8.2 0 14.6 3 19.1 9V50zM348.6 79.8c4.5 3.3 6.7 8.1 6.6 14 0 6.3-2.2 11.3-6.8 14.8-4.6 3.3-10.1 5.1-16.8 5.1-12.1 0-20.3-5-24.6-14.8l13.1-7.8c1.8 5.3 5.6 8.1 11.5 8.1 5.4 0 8.1-1.7 8.1-5.3 0-2.6-3.5-5-10.6-6.8-2.7-.7-4.9-1.5-6.7-2.1-2.4-1-4.6-2.1-6.4-3.5-4.4-3.3-6.6-7.8-6.6-13.5 0-6.1 2.1-10.8 6.4-14.4 4.4-3.6 9.6-5.3 16-5.3 10.1 0 17.4 4.4 22.2 13.1l-13 7.4c-1.9-4.3-5-6.3-9.4-6.3-4.6 0-6.8 1.7-6.8 5.1 0 2.6 3.5 5 10.6 6.8 5.6 1.2 10 3 13.2 5.4m48-14.5h-13.3V91c0 3.1 1.2 5 3.4 5.8 1.6.6 4.9.7 9.9.5v14.5c-10.2 1.3-17.5.2-21.9-3.1-4.4-3.2-6.5-9.1-6.5-17.7V65.3H358V50h10.2V37.5l15.1-4.8V50h13.3v15.3zm314.8 0h-13.3V91c0 3.1 1.2 5 3.4 5.8 1.6.6 4.9.7 9.9.5v14.5c-10.2 1.3-17.5.2-21.9-3.1-4.4-3.2-6.5-9.1-6.5-17.7V65.3h-10.2V50H683V37.5l15.1-4.8V50h13.3v15.3zM444.8 93.2c3.1-3.2 4.6-7.3 4.6-12.2 0-5-1.5-9-4.6-12.2S438 64 433.4 64c-4.6 0-8.3 1.6-11.4 4.8-3 3.3-4.5 7.4-4.5 12.2s1.5 8.9 4.5 12.2c3.1 3.2 6.8 4.8 11.4 4.8 4.6 0 8.3-1.6 11.4-4.8m-33.4 11c-6-6.3-8.9-14-8.9-23.3 0-9.1 3-16.8 8.9-23.2s13.4-9.6 22-9.6c8.7 0 16.1 3.2 22 9.6 6 6.3 9 14.1 9 23.2s-3.1 17-9 23.3-13.3 9.4-22 9.4c-8.8 0-16-3.1-22-9.4m196-17.3v-38h15.1V85c0 4 1.1 7.2 3.2 9.6 2 2.1 4.8 3.2 8.4 3.2 8.5 0 12.9-5.1 12.9-15.3V48.9h15.1v61.9H647v-6.9c-3.6 5.8-9.4 8.6-17.4 8.6-6.5 0-11.7-2.2-15.8-6.8-4.3-4.5-6.4-10.7-6.4-18.8m-80.7-12.3v38h-15.1V76.5c0-4-1.1-7.2-3.2-9.6-2-2.1-4.8-3.2-8.4-3.2-8.5 0-12.9 5.1-12.9 15.3v33.4H472V50.6h15.1v6.9c3.6-5.8 9.4-8.6 17.4-8.6 6.5 0 11.7 2.2 15.8 6.8 4.3 4.6 6.4 10.8 6.4 18.9" fill="#fff"/>
 </symbol>
</svg>
