<?xml version="1.0" encoding="utf-8"?>
<!-- Generator: Adobe Illustrator 23.1.0, SVG Export Plug-In . SVG Version: 6.00 Build 0)  -->
<svg version="1.1" id="Laag_1" xmlns="http://www.w3.org/2000/svg" xmlns:xlink="http://www.w3.org/1999/xlink" x="0px" y="0px"
	 viewBox="0 0 216.4 232" style="enable-background:new 0 0 216.4 232;" xml:space="preserve">
<style type="text/css">
	.st0{fill:#FFFFFF;}
	.st1{fill:#EEAE1F;}
</style>
<g>
	<path class="st0" d="M47.1,31.7c-3.4,3-32.5,33.7-31.2,45.5s-4.6,46.8-4.6,46.8s19.4,85.2,21.9,88.6s15.2,10.1,19,11.8
		s17.3-2.1,19.8-3.8s32.1-20.2,35-21.9s30.4-16.9,31.6-17.7s30.8,0.4,32.1,0.4s12.7-21.5,12.7-21.5s24.5-57.8,21.9-68.3
		C202.7,81,202.7,81,202.7,81s-6.5-37.8-24.5-51.9C150.9,7.7,90.1,7.7,90.1,7.7L47.1,31.7z"/>
	<path class="st1" d="M185.1,26C149.2-4.1,99.6-7.1,61.1,14.6c-0.2,0-0.2,0-0.4,0.2c-0.2,0-0.2,0.2-0.4,0.2
		c-10.8,6.2-20.9,14.5-29.5,24.7C11.7,62.3,3.7,91.8,6.7,127.8c3.4,42,16.1,73.3,23.3,88.1c4,8.2,11.6,13.9,20.5,15.5l0,0
		c1.4,0.2,3,0.4,4.4,0.4c4.8,0,9.6-1.2,13.9-3.6l69.7-39.9c2.4-1.4,5-2,7.8-2h28.1c2.2,0,4.2-1.2,5.2-3c0.6-0.8,12.4-21.7,20.1-42.8
		C228.9,60.1,189.2,29,185.1,26z M25.1,132.2c-0.2,0-0.4,0-0.6,0c-3,0-5.8-2.4-6-5.6c-0.4-4.8-0.6-9.4-0.6-14.1c0-3.2,2.8-6,6-6l0,0
		c3.4,0,6,2.8,6,6c0,4.2,0.2,8.6,0.6,13C31,129,28.6,131.8,25.1,132.2z M28,89.4c-0.6,0-1,0-1.6-0.2c-3.2-0.8-5-4.2-4.2-7.4
		c3.6-13,9.6-24.7,17.9-34.5c2.2-2.6,6-2.8,8.4-0.8c2.6,2.2,2.8,6,0.8,8.4C42,63.5,36.8,73.6,33.8,84.8C33.2,87.8,30.8,89.4,28,89.4
		z M188.4,136.2c-5.6,15.5-14.1,31.3-17.5,37.9h-24.7c-4.8,0-9.6,1.2-13.9,3.6l-69.7,39.7c-3.2,1.8-6.8,2.4-10.4,1.8
		c-5-0.8-9.4-4-11.6-8.6c-2.4-4.8-5.2-11.4-8.2-19.7l97.2-75.1c6-4.6,9.6-11.6,10-19.3s-2.6-15.1-8-20.3l-57.4-55
		c33.1-15.3,73.7-11,103.4,13.9c0.2,0.2,0.4,0.2,0.4,0.4C178.3,35.8,215.3,62.1,188.4,136.2z"/>
</g>
</svg>
