<?xml version="1.0" encoding="utf-8"?>
<!-- Generator: Adobe Illustrator 23.1.0, SVG Export Plug-In . SVG Version: 6.00 Build 0)  -->
<svg version="1.1" id="Laag_1" xmlns="http://www.w3.org/2000/svg" xmlns:xlink="http://www.w3.org/1999/xlink" x="0px" y="0px"
	 viewBox="0 0 216.4 232" style="enable-background:new 0 0 216.4 232;" xml:space="preserve">
<g>
	<path d="M185.9,25.7C149.9-4.4,100.3-7.4,61.8,14.2c-0.2,0-0.2,0-0.4,0.2c-0.2,0-0.2,0.2-0.4,0.2c-10.8,6.2-20.9,14.5-29.5,24.7
		C12.4,62,4.4,91.5,7.4,127.5c3.4,42,16.1,73.3,23.3,88.1c4,8.2,11.6,13.9,20.5,15.5l0,0c1.4,0.2,3,0.4,4.4,0.4
		c4.8,0,9.6-1.2,13.9-3.6l69.7-39.9c2.4-1.4,5-2,7.8-2H175c2.2,0,4.2-1.2,5.2-3c0.6-0.8,12.4-21.7,20.1-42.8
		C229.6,59.8,189.9,28.7,185.9,25.7z M25.9,131.9c-0.2,0-0.4,0-0.6,0c-3,0-5.8-2.4-6-5.6c-0.4-4.8-0.6-9.4-0.6-14.1c0-3.2,2.8-6,6-6
		l0,0c3.4,0,6,2.8,6,6c0,4.2,0.2,8.6,0.6,13C31.7,128.7,29.3,131.5,25.9,131.9z M28.7,89.1c-0.6,0-1,0-1.6-0.2
		c-3.2-0.8-5-4.2-4.2-7.4c3.6-13,9.6-24.7,17.9-34.5c2.2-2.6,6-2.8,8.4-0.8c2.6,2.2,2.8,6,0.8,8.4c-7.2,8.6-12.4,18.7-15.5,29.9
		C33.9,87.5,31.5,89.1,28.7,89.1z M189.1,135.9c-5.6,15.5-14.1,31.3-17.5,37.9h-24.7c-4.8,0-9.6,1.2-13.9,3.6l-69.7,39.7
		c-3.2,1.8-6.8,2.4-10.4,1.8c-5-0.8-9.4-4-11.6-8.6c-2.4-4.8-5.2-11.4-8.2-19.7l97.2-75.1c6-4.6,9.6-11.6,10-19.3
		c0.4-7.6-2.6-15.1-8-20.3l-57.4-55C108,5.8,148.5,10,178.2,34.9c0.2,0.2,0.4,0.2,0.4,0.4C179,35.5,216,61.8,189.1,135.9z"/>
</g>
</svg>
