<svg display="none" xmlns="http://www.w3.org/2000/svg">
 <symbol id="mastodon-svg-logo-full" viewBox="0 0 713.4 175.9" id=".2845861724783496" xmlns="http://www.w3.org/2000/svg">
 <path class="ast0" d="M31.1 23.8C28.5 26 6.5 49.4 7.4 58.3S3.9 93.8 3.9 93.8s14.7 64.6 16.6 67.1c1.9 2.6 11.5 7.7 14.4 9 2.9 1.3 13.1-1.6 15-2.9 1.9-1.3 24.3-15.3 26.5-16.6s23-12.8 24-13.4c1-.6 23.3.3 24.3.3s9.6-16.3 9.6-16.3 18.5-43.8 16.6-51.8l-1.9-8s-4.9-28.6-18.5-39.3C109.8 5.6 63.7 5.6 63.7 5.6L31.1 23.8z" fill="#fff"/>
 <path class="ast1" d="M135.8 19.5C108.5-3.3 70.9-5.6 41.7 10.8c-.2 0-.2 0-.3.2-.2 0-.2.2-.3.2-8.2 4.7-15.8 11-22.4 18.7C4.3 47-1.8 69.4.5 96.6c2.6 31.8 12.2 55.5 17.7 66.8 3 6.2 8.8 10.5 15.5 11.7 1.1.2 2.3.3 3.3.3 3.7 0 7.3-.9 10.5-2.7l52.8-30.3c1.8-1.1 3.8-1.5 5.9-1.5h21.3c1.7 0 3.2-.9 4-2.3.5-.6 9.4-16.4 15.2-32.4 22.2-60.8-7.9-84.4-10.9-86.7zM14.5 100H14c-2.3 0-4.4-1.8-4.6-4.3-.3-3.6-.4-7.1-.4-10.6 0-2.4 2.1-4.6 4.6-4.6 2.6 0 4.6 2.1 4.6 4.6 0 3.2.2 6.5.5 9.9.2 2.6-1.7 4.7-4.2 5zm2.1-32.4c-.5 0-.8 0-1.2-.2-2.4-.6-3.8-3.2-3.2-5.6 2.7-9.9 7.3-18.7 13.5-26.2 1.7-2 4.6-2.1 6.4-.6 2 1.7 2.1 4.6.6 6.4-5.5 6.5-9.4 14.2-11.7 22.7-.5 2.3-2.3 3.5-4.4 3.5zM138.2 103c-4.3 11.7-10.7 23.7-13.2 28.8h-18.7c-3.7 0-7.3.9-10.5 2.7L43 164.6c-2.4 1.4-5.2 1.8-7.9 1.4-3.8-.6-7.2-3-8.8-6.5-1.8-3.7-4-8.7-6.2-14.9l73.7-56.9c4.6-3.5 7.3-8.8 7.6-14.6s-2-11.4-6.1-15.4L51.6 16C76.7 4.4 107.4 7.6 130 26.5c.2.2.3.2.3.3.3.1 28.3 20.1 7.9 76.2z" fill="#eeae1f"/>
 <path class="ast0" d="M251.1 76.7V113h-14.4V77.7c0-7.4-3.1-11.2-9.4-11.2-6.9 0-10.4 4.5-10.4 13.3v19.3h-14.3V79.8c0-8.9-3.5-13.3-10.4-13.3-6.3 0-9.4 3.8-9.4 11.2V113h-14.4V76.7c0-7.4 1.9-13.3 5.7-17.7 3.9-4.4 9.1-6.6 15.4-6.6 7.4 0 13 2.8 16.7 8.5l3.6 6 3.6-6c3.7-5.7 9.3-8.5 16.7-8.5 6.4 0 11.5 2.2 15.4 6.6 3.7 4.3 5.6 10.2 5.6 17.7m49.6 18c3-3.1 4.4-7.1 4.4-11.9s-1.4-8.7-4.4-11.8c-2.9-3.1-6.5-4.7-10.9-4.7s-8 1.5-10.9 4.7c-2.9 3-4.3 7-4.3 11.8s1.4 8.7 4.3 11.9c2.9 3 6.5 4.5 10.9 4.5 4.4.1 8.1-1.4 10.9-4.5m4.4-40.9h14.2V112h-14.2v-6.9c-4.3 5.7-10.2 8.5-18 8.5-7.4 0-13.7-2.9-19-8.8-5.2-5.9-7.8-13.3-7.8-21.9 0-8.5 2.6-15.8 7.8-21.8 5.3-5.9 11.6-9 19-9 7.7 0 13.7 2.8 18 8.5v-6.8zm277.4 40.9c3-3.1 4.4-7.1 4.4-11.9s-1.4-8.7-4.4-11.8c-2.9-3.1-6.5-4.7-10.9-4.7s-8 1.5-10.9 4.7c-2.9 3-4.3 7-4.3 11.8s1.4 8.7 4.3 11.9c2.9 3 6.5 4.5 10.9 4.5 4.4.1 8-1.4 10.9-4.5m4.4-40.9h14.2V112h-14.2v-6.9c-4.3 5.7-10.2 8.5-18 8.5-7.4 0-13.7-2.9-19-8.8-5.2-5.9-7.8-13.3-7.8-21.9 0-8.5 2.6-15.8 7.8-21.8 5.3-5.9 11.6-9 19-9 7.7 0 13.7 2.8 18 8.5v-6.8zm-219.7 28c4.2 3.1 6.3 7.6 6.2 13.2 0 5.9-2.1 10.6-6.4 13.9-4.3 3.1-9.5 4.8-15.8 4.8-11.4 0-19.1-4.7-23.1-13.9l12.3-7.3c1.7 5 5.3 7.6 10.8 7.6 5.1 0 7.6-1.6 7.6-5 0-2.4-3.3-4.7-10-6.4-2.5-.7-4.6-1.4-6.3-2-2.3-.9-4.3-2-6-3.3-4.1-3.1-6.2-7.3-6.2-12.7 0-5.7 2-10.2 6-13.5 4.1-3.4 9-5 15-5 9.5 0 16.4 4.1 20.9 12.3l-12.1 7c-1.8-4-4.7-5.9-8.8-5.9-4.3 0-6.4 1.6-6.4 4.8 0 2.4 3.3 4.7 10 6.4 5.2 1.1 9.3 2.8 12.3 5m45.2-13.6h-12.5v24.2c0 2.9 1.1 4.7 3.2 5.5 1.5.6 4.6.7 9.3.5V112c-9.6 1.2-16.5.2-20.6-2.9-4.1-3-6.1-8.6-6.1-16.6V68.2h-9.6V53.8h9.6V42l14.2-4.5v16.3h12.5v14.4zm296 0h-12.5v24.2c0 2.9 1.1 4.7 3.2 5.5 1.5.6 4.6.7 9.3.5V112c-9.6 1.2-16.5.2-20.6-2.9-4.1-3-6.1-8.6-6.1-16.6V68.2h-9.6V53.8h9.6V42l14.2-4.5v16.3h12.5v14.4zM457.7 94.4c2.9-3 4.3-6.9 4.3-11.5 0-4.7-1.4-8.5-4.3-11.5s-6.4-4.5-10.7-4.5c-4.3 0-7.8 1.5-10.7 4.5-2.8 3.1-4.2 7-4.2 11.5s1.4 8.4 4.2 11.5c2.9 3 6.4 4.5 10.7 4.5 4.3 0 7.8-1.5 10.7-4.5m-31.4 10.4c-5.6-5.9-8.4-13.2-8.4-21.9 0-8.6 2.8-15.8 8.4-21.8s12.6-9 20.7-9c8.2 0 15.1 3 20.7 9 5.6 5.9 8.5 13.3 8.5 21.8 0 8.6-2.9 16-8.5 21.9-5.6 5.9-12.5 8.8-20.7 8.8-8.3 0-15.1-2.9-20.7-8.8m184.3-16.3V52.8h14.2v33.9c0 3.8 1 6.8 3 9 1.9 2 4.5 3 7.9 3 8 0 12.1-4.8 12.1-14.4V52.8H662V111h-14.2v-6.5c-3.4 5.5-8.8 8.1-16.4 8.1-6.1 0-11-2.1-14.9-6.4-3.9-4.3-5.9-10.1-5.9-17.7m-75.9-11.6v35.7h-14.2V78.7c0-3.8-1-6.8-3-9-1.9-2-4.5-3-7.9-3-8 0-12.1 4.8-12.1 14.4v31.4h-14.2V54.4h14.2v6.5c3.4-5.5 8.8-8.1 16.4-8.1 6.1 0 11 2.1 14.9 6.4 3.9 4.3 5.9 10.1 5.9 17.7" fill="#fff"/>
 </symbol>
</svg>
