<?xml version="1.0" encoding="utf-8"?>
<!-- Generator: Adobe Illustrator 23.1.0, SVG Export Plug-In . SVG Version: 6.00 Build 0)  -->
<svg version="1.1" id="Laag_1" xmlns="http://www.w3.org/2000/svg" xmlns:xlink="http://www.w3.org/1999/xlink" x="0px" y="0px"
	 viewBox="0 0 216.4 232" style="enable-background:new 0 0 216.4 232;" xml:space="preserve">
<style type="text/css">
	.st0{fill:#FFFFFF;}
	.st1{fill:#371A45;}
	.st2{opacity:0.35;}
	.st3{fill:#293856;}
	.st4{fill:#21102B;}
	.st5{opacity:0.5;}
</style>
<g>
	<g>
		<g>
			<g>
				<g>
					<g>
						<g>
							<g>
								<path class="st0" d="M204.6,155C147.2,273.9-20.7,200,22,80.2C77.9-42.9,251.4,33.7,204.6,155z"/>
							</g>
						</g>
					</g>
				</g>
				<g>
					<g>
						<g>
							<g>
								<path class="st0" d="M204.6,155C147.2,273.9-20.7,200,22,80.2C77.9-42.9,251.4,33.7,204.6,155z"/>
							</g>
						</g>
					</g>
				</g>
				<g>
					<g>
						<g>
							<g>
								<path class="st0" d="M204.6,155C147.2,273.9-20.7,200,22,80.2C77.9-42.9,251.4,33.7,204.6,155z"/>
							</g>
						</g>
					</g>
				</g>
				<g>
					<g>
						<g>
							<g>
								<path class="st1" d="M115.5,217.1c-13.4,0-27-2.7-40-8.2c-11.4-4.8-21.6-11.3-30.6-19.5c-9.2-8.5-16.6-18.3-22-29.3
									C11,135.9,10.1,108,20.3,79.6l0.1-0.1c13.1-28.9,33.7-49,59.5-58.2c11.6-4.1,23.9-5.9,36.6-5.3c12.2,0.6,24.2,3.3,35.7,8.1
									c11.5,4.8,22,11.5,31,19.9c9.4,8.6,16.8,18.7,22.1,29.8c11.8,24.8,12.2,53.1,1.1,81.8l-0.1,0.1
									c-13.5,27.9-34.1,47.4-59.6,56.1C136.7,215.4,126.1,217.1,115.5,217.1z M23.6,80.9C1.8,142.1,36,188.5,76.9,205.6
									c12.2,5.1,25.5,8,39,8c32.8,0,66.6-16.9,87.1-59.3C226.9,92.2,192.6,45,150.7,27.4C109.1,10,51.7,19.3,23.6,80.9z
									 M204.6,155L204.6,155L204.6,155z"/>
							</g>
						</g>
					</g>
				</g>
				<g class="st2">
					<g>
						<g>
							<g>
								<path class="st1" d="M204.6,155C156.8,258.5,9.4,218.6,15.3,109.1c9.6,34.5,21.8,34.8,41.8,51c61.8,53.6,147,2.8,152.1-68.9
									C214.9,112.7,213,135.2,204.6,155z"/>
							</g>
						</g>
					</g>
				</g>
				<g>
					<g>
						<g>
							<g>
								<path class="st3" d="M115.5,217.8c-13.5,0-27.2-2.7-40.2-8.2c-11.4-4.8-21.8-11.4-30.8-19.7c-9.3-8.5-16.8-18.5-22.2-29.5
									C10.3,136,9.4,108,19.6,79.3l0-0.1l0-0.1c13.2-29.1,33.9-49.3,59.9-58.6c11.7-4.1,24.1-6,36.8-5.4
									c12.3,0.6,24.3,3.3,35.9,8.2c11.6,4.9,22.1,11.6,31.2,20c9.4,8.7,16.9,18.8,22.3,30.1c11.9,25,12.3,53.5,1.1,82.4l0,0.1
									l0,0.1c-13.6,28.1-34.3,47.7-60,56.5C136.8,216.1,126.2,217.8,115.5,217.8z M24.3,81.1C2.7,141.9,36.5,187.9,77.2,204.9
									c41.6,17.4,96.4,8.4,125.1-51C226,92.4,192,45.5,150.4,28.1C109.2,10.8,52.2,20,24.3,81.1z M204.6,155L204.6,155L204.6,155z
									"/>
							</g>
						</g>
					</g>
				</g>
				<g>
					<g>
						<g>
							<g>
								<path class="st1" d="M115.5,217.8c-13.5,0-27.2-2.7-40.2-8.2c-11.4-4.8-21.8-11.4-30.8-19.7c-9.3-8.5-16.8-18.5-22.2-29.5
									C10.3,136,9.4,108,19.6,79.3l0-0.1l0-0.1c13.2-29.1,33.9-49.3,59.9-58.6c11.7-4.1,24.1-6,36.8-5.4
									c12.3,0.6,24.3,3.3,35.9,8.2c11.6,4.9,22.1,11.6,31.2,20c9.4,8.7,16.9,18.8,22.3,30.1c11.9,25,12.3,53.5,1.1,82.4l0,0.1
									l0,0.1c-13.6,28.1-34.3,47.7-60,56.5C136.8,216.1,126.2,217.8,115.5,217.8z M24.3,81.1C2.7,141.9,36.5,187.9,77.2,204.9
									c41.6,17.4,96.4,8.4,125.1-51C226,92.4,192,45.5,150.4,28.1C109.2,10.8,52.2,20,24.3,81.1z M204.6,155L204.6,155L204.6,155z
									"/>
							</g>
						</g>
					</g>
				</g>
				<g>
					<g>
						<g>
							<g>
								<path class="st1" d="M191.9,176.8C101.5,249.4,0.9,146.2,66.2,68.5C144.7-14.1,259.7,80.4,191.9,176.8z"/>
							</g>
						</g>
					</g>
				</g>
				<g>
					<g>
						<g>
							<g>
								<path class="st4" d="M208.5,105.1c15.4,103.6-131.7,133.7-161.3,41.2C102.8,195.3,187.9,159.3,208.5,105.1z"/>
							</g>
						</g>
					</g>
				</g>
				<g>
					<g>
						<g>
							<g>
								<path class="st1" d="M125.1,214c-9.5,0-19.1-1.6-28.4-4.7c-10.3-3.4-19.9-8.5-28.5-15.2c-8.8-6.8-16.2-15-22-24.3
									c-6.1-9.8-10.2-20.5-12.1-31.8c-2.1-12.1-1.8-24.7,1-37.6l0-0.1c3.2-13.1,9.3-25.3,18.2-36.3c8.3-10.4,19-19.4,30.9-26
									c12-6.7,25.3-11.1,38.5-12.8c14.1-1.8,27.8-0.6,40.8,3.6l0.2,0.1l0.2,0.1c21.9,11.4,38.3,31.4,46.1,56.5
									c7.4,23.6,6.3,49.4-3.1,70.5l0,0c-5.8,12.8-13.1,23.7-21.8,32.6c-8.1,8.3-17.4,14.6-27.6,18.9c-9.6,4.1-19.8,6.2-30.5,6.5
									C126.4,214,125.8,214,125.1,214z M40.1,101.6c-11.2,51.2,20.8,90.5,58.2,102.9c32.5,10.8,79.3,4,104-50.6
									c17.3-38.9,5.1-96.5-40.5-120.4c-24-7.6-51.4-4.4-75,8.9C63.1,55.8,46.1,77.3,40.1,101.6z M204.6,155L204.6,155L204.6,155z"
									/>
							</g>
						</g>
					</g>
				</g>
				<g>
					<g>
						<g>
							<g>
								<path class="st1" d="M127.7,204c-1.6,0-3.3,0-4.9-0.1c-21.5-1.2-41.5-10.3-56.6-25.7c-13.9-14.2-22.1-32.5-23.3-51.5
									c-1.3-21,6.1-41.7,21.4-59.8l0.1-0.1c18.5-19.5,40.4-30.7,63.3-32.2c20.6-1.4,40.8,5.1,56.9,18.3
									c16.5,13.5,27,32.6,29.7,53.8c2.9,23.7-4.1,48.4-20.4,71.6l-0.2,0.3l-0.3,0.2C172.8,195.4,150.2,204,127.7,204z M68.1,70.2
									c-32.1,38.2-22.2,80,1.7,104.5c26.4,27,73.7,37.5,120.2,0.4c34-48.6,19.4-95.4-8.6-118.3C153.3,33.7,107.4,28.9,68.1,70.2z
									 M191.9,176.8L191.9,176.8L191.9,176.8z"/>
							</g>
						</g>
					</g>
				</g>
				<g>
					<g>
						<g>
							<g>
								<path class="st0" d="M5.9,152.5c12.8,44.8,58.8,35.7,50.8-8.3C45,96.8-4.1,106.5,5.9,152.5z"/>
							</g>
						</g>
					</g>
				</g>
				<g class="st2">
					<g>
						<g>
							<g>
								<path class="st1" d="M39.6,181.7c13.8-2.6,21.6-20.9,16.6-39.8c-6,21.3-31.6-9-34.3-18.3C-12.6,137.4,14.4,187,39.6,181.7z"
									/>
							</g>
						</g>
					</g>
				</g>
				<g>
					<g>
						<g>
							<g>
								<path class="st1" d="M35.5,184.5c-5.5,0-11.1-2-16.1-5.8c-7.2-5.5-12.7-14.3-15.9-25.5l0-0.2c-2.4-11-1.7-20.8,2-28.5
									c3.4-7.1,9.2-11.9,16.2-13.5c3.6-0.8,7.3-0.8,11.1,0.1c3.8,1,7.5,2.8,10.8,5.5c7.3,5.8,12.7,15.1,15.7,26.9l0,0.2
									c1.9,10.5,0.9,19.9-2.7,27.2c-3.4,6.8-9,11.4-15.8,12.9C39,184.3,37.2,184.5,35.5,184.5z M8.4,151.9
									c6.4,22.1,20.6,29.5,31.2,27.1c5.3-1.2,9.7-4.9,12.4-10.3c3.2-6.3,4-14.6,2.3-23.9c-2.7-10.7-7.5-19-13.9-24.1
									c-5.5-4.3-11.7-6-17.6-4.6c-5.5,1.3-10,5.1-12.8,10.8C6.8,133.4,6.2,142.1,8.4,151.9z"/>
							</g>
						</g>
					</g>
				</g>
				<g>
					<g>
						<g>
							<g>
								<path class="st0" d="M4.5,155.3c10.4,36.3,45,30,38.5-5.5C33.6,110.9-3.9,117.7,4.5,155.3z"/>
							</g>
						</g>
					</g>
				</g>
				<g>
					<g>
						<g>
							<g>
								<path class="st1" d="M27.7,182.2c-4.5,0-9-1.7-13.1-5.1C9,172.5,4.7,165.2,2,156l0-0.1c-2-9-1.6-17,1.1-23.2
									c2.5-5.9,7-9.8,12.5-11.1c5.8-1.3,12.2,0.5,17.5,5c5.8,4.9,10.1,12.8,12.5,22.6l0,0.1c1.5,8.5,0.9,16.1-1.8,21.9
									c-2.6,5.5-6.9,9.3-12.1,10.5C30.3,182,29,182.2,27.7,182.2z M6.9,154.6c2.4,8.2,6.2,14.6,11,18.5c4,3.3,8.5,4.6,12.6,3.6
									c7.1-1.7,13-10.5,10.1-26.5c-4.4-18.2-15.4-25.8-23.8-23.8c-3.9,0.9-7.1,3.8-9,8.1C5.4,139.8,5.2,146.8,6.9,154.6z"/>
							</g>
						</g>
					</g>
				</g>
				<g class="st5">
					<g>
						<g>
							<g>
								<path class="st0" d="M63,123.8c7.8,18,28.4,9.5,24.3-7.2C80.9,95.9,56.5,105.5,63,123.8z"/>
							</g>
						</g>
					</g>
				</g>
				<g class="st5">
					<g>
						<g>
							<g>
								<path class="st0" d="M78.2,151.7c3.4,6.7,12.4,3.2,9.5-4.5C84.3,140.5,75.2,144.1,78.2,151.7z"/>
							</g>
						</g>
					</g>
				</g>
				<g class="st5">
					<g>
						<g>
							<g>
								<path class="st0" d="M199.3,114.5c3.2-74.8-73.9-74.9-95-56.4C153.4,55.4,178.7,82.7,199.3,114.5z"/>
							</g>
						</g>
					</g>
				</g>
				<g class="st2">
					<g>
						<g>
							<g>
								<path class="st1" d="M45.9,157.9c0-5.3-1.4-10.6-3.9-15.4c-3.5,25.8-30,18-38.1,0.7C3,181,42.8,193.6,45.9,157.9z"/>
							</g>
						</g>
					</g>
				</g>
				<g>
					<g>
						<g>
							<g>
								<path class="st1" d="M50,116.9c-1.2,0-2.6-0.4-4.3-1.4c-1.2-0.7-1.6-2.3-0.9-3.5c0.7-1.2,2.3-1.6,3.5-0.9
									c1.1,0.6,1.6,0.7,1.7,0.7c0.2-0.2,0.6-0.9,0.7-2.7c0.1-1.4-0.1-2.7-0.1-2.7c-0.2-1.4,0.8-2.7,2.2-2.8
									c1.4-0.2,2.7,0.8,2.8,2.2c0,0.1,0.2,1.8,0.1,3.8c-0.2,3.2-1.2,5.4-3,6.5C52.1,116.5,51.1,116.9,50,116.9z"/>
							</g>
						</g>
					</g>
				</g>
			</g>
		</g>
	</g>
</g>
</svg>
