<svg display="none" xmlns="http://www.w3.org/2000/svg">
 <symbol id="mastodon-svg-logo" viewBox="0 0 216.4 232" id=".9259770116660335" xmlns="http://www.w3.org/2000/svg">
 <path class="ast0" d="M204.6 155C147.2 273.9-20.7 200 22 80.2 77.9-42.9 251.4 33.7 204.6 155z" fill="#fff"/>
 <path class="ast0" d="M204.6 155C147.2 273.9-20.7 200 22 80.2 77.9-42.9 251.4 33.7 204.6 155z" fill="#fff"/>
 <path class="ast0" d="M204.6 155C147.2 273.9-20.7 200 22 80.2 77.9-42.9 251.4 33.7 204.6 155z" fill="#fff"/>
 <path class="ast1" d="M115.5 217.1c-13.4 0-27-2.7-40-8.2-11.4-4.8-21.6-11.3-30.6-19.5-9.2-8.5-16.6-18.3-22-29.3C11 135.9 10.1 108 20.3 79.6l.1-.1c13.1-28.9 33.7-49 59.5-58.2 11.6-4.1 23.9-5.9 36.6-5.3 12.2.6 24.2 3.3 35.7 8.1 11.5 4.8 22 11.5 31 19.9 9.4 8.6 16.8 18.7 22.1 29.8 11.8 24.8 12.2 53.1 1.1 81.8l-.1.1c-13.5 27.9-34.1 47.4-59.6 56.1-10 3.6-20.6 5.3-31.2 5.3zM23.6 80.9C1.8 142.1 36 188.5 76.9 205.6c12.2 5.1 25.5 8 39 8 32.8 0 66.6-16.9 87.1-59.3C226.9 92.2 192.6 45 150.7 27.4c-41.6-17.4-99-8.1-127.1 53.5zm181 74.1z" fill="#371a45"/>
 <g class="ast2" opacity=".35">
 <path class="ast1" d="M204.6 155C156.8 258.5 9.4 218.6 15.3 109.1c9.6 34.5 21.8 34.8 41.8 51 61.8 53.6 147 2.8 152.1-68.9 5.7 21.5 3.8 44-4.6 63.8z" fill="#371a45"/>
 </g>
 <path class="ast3" d="M115.5 217.8c-13.5 0-27.2-2.7-40.2-8.2-11.4-4.8-21.8-11.4-30.8-19.7-9.3-8.5-16.8-18.5-22.2-29.5-12-24.4-12.9-52.4-2.7-81.1v-.2C32.8 50 53.5 29.8 79.5 20.5c11.7-4.1 24.1-6 36.8-5.4 12.3.6 24.3 3.3 35.9 8.2 11.6 4.9 22.1 11.6 31.2 20 9.4 8.7 16.9 18.8 22.3 30.1 11.9 25 12.3 53.5 1.1 82.4v.2c-13.6 28.1-34.3 47.7-60 56.5-10 3.6-20.6 5.3-31.3 5.3zM24.3 81.1C2.7 141.9 36.5 187.9 77.2 204.9c41.6 17.4 96.4 8.4 125.1-51C226 92.4 192 45.5 150.4 28.1c-41.2-17.3-98.2-8.1-126.1 53zM204.6 155z" fill="#293856"/>
 <path class="ast1" d="M115.5 217.8c-13.5 0-27.2-2.7-40.2-8.2-11.4-4.8-21.8-11.4-30.8-19.7-9.3-8.5-16.8-18.5-22.2-29.5-12-24.4-12.9-52.4-2.7-81.1v-.2C32.8 50 53.5 29.8 79.5 20.5c11.7-4.1 24.1-6 36.8-5.4 12.3.6 24.3 3.3 35.9 8.2 11.6 4.9 22.1 11.6 31.2 20 9.4 8.7 16.9 18.8 22.3 30.1 11.9 25 12.3 53.5 1.1 82.4v.2c-13.6 28.1-34.3 47.7-60 56.5-10 3.6-20.6 5.3-31.3 5.3zM24.3 81.1C2.7 141.9 36.5 187.9 77.2 204.9c41.6 17.4 96.4 8.4 125.1-51C226 92.4 192 45.5 150.4 28.1c-41.2-17.3-98.2-8.1-126.1 53zM204.6 155z" fill="#371a45"/>
 <path class="ast1" d="M191.9 176.8C101.5 249.4.9 146.2 66.2 68.5c78.5-82.6 193.5 11.9 125.7 108.3z" fill="#371a45"/>
 <path class="ast4" d="M208.5 105.1c15.4 103.6-131.7 133.7-161.3 41.2 55.6 49 140.7 13 161.3-41.2z" fill="#21102b"/>
 <path class="ast1" d="M125.1 214c-9.5 0-19.1-1.6-28.4-4.7-10.3-3.4-19.9-8.5-28.5-15.2-8.8-6.8-16.2-15-22-24.3C40.1 160 36 149.3 34.1 138c-2.1-12.1-1.8-24.7 1-37.6v-.1C38.3 87.2 44.4 75 53.3 64c8.3-10.4 19-19.4 30.9-26 12-6.7 25.3-11.1 38.5-12.8 14.1-1.8 27.8-.6 40.8 3.6l.2.1.2.1c21.9 11.4 38.3 31.4 46.1 56.5 7.4 23.6 6.3 49.4-3.1 70.5-5.8 12.8-13.1 23.7-21.8 32.6-8.1 8.3-17.4 14.6-27.6 18.9-9.6 4.1-19.8 6.2-30.5 6.5h-1.9zm-85-112.4c-11.2 51.2 20.8 90.5 58.2 102.9 32.5 10.8 79.3 4 104-50.6 17.3-38.9 5.1-96.5-40.5-120.4-24-7.6-51.4-4.4-75 8.9-23.7 13.4-40.7 34.9-46.7 59.2zM204.6 155z" fill="#371a45"/>
 <path class="ast1" d="M127.7 204c-1.6 0-3.3 0-4.9-.1-21.5-1.2-41.5-10.3-56.6-25.7-13.9-14.2-22.1-32.5-23.3-51.5-1.3-21 6.1-41.7 21.4-59.8l.1-.1c18.5-19.5 40.4-30.7 63.3-32.2 20.6-1.4 40.8 5.1 56.9 18.3 16.5 13.5 27 32.6 29.7 53.8 2.9 23.7-4.1 48.4-20.4 71.6l-.2.3-.3.2c-20.6 16.6-43.2 25.2-65.7 25.2zM68.1 70.2c-32.1 38.2-22.2 80 1.7 104.5 26.4 27 73.7 37.5 120.2.4 34-48.6 19.4-95.4-8.6-118.3-28.1-23.1-74-27.9-113.3 13.4zm123.8 106.6z" fill="#371a45"/>
 <path class="ast0" d="M5.9 152.5c12.8 44.8 58.8 35.7 50.8-8.3C45 96.8-4.1 106.5 5.9 152.5z" fill="#fff"/>
 <g class="ast2" opacity=".35">
 <path class="ast1" d="M39.6 181.7c13.8-2.6 21.6-20.9 16.6-39.8-6 21.3-31.6-9-34.3-18.3-34.5 13.8-7.5 63.4 17.7 58.1z" fill="#371a45"/>
 </g>
 <path class="ast1" d="M35.5 184.5c-5.5 0-11.1-2-16.1-5.8-7.2-5.5-12.7-14.3-15.9-25.5v-.2c-2.4-11-1.7-20.8 2-28.5 3.4-7.1 9.2-11.9 16.2-13.5 3.6-.8 7.3-.8 11.1.1 3.8 1 7.5 2.8 10.8 5.5 7.3 5.8 12.7 15.1 15.7 26.9v.2c1.9 10.5.9 19.9-2.7 27.2-3.4 6.8-9 11.4-15.8 12.9-1.8.5-3.6.7-5.3.7zM8.4 151.9C14.8 174 29 181.4 39.6 179c5.3-1.2 9.7-4.9 12.4-10.3 3.2-6.3 4-14.6 2.3-23.9-2.7-10.7-7.5-19-13.9-24.1-5.5-4.3-11.7-6-17.6-4.6-5.5 1.3-10 5.1-12.8 10.8-3.2 6.5-3.8 15.2-1.6 25z" fill="#371a45"/>
 <path class="ast0" d="M4.5 155.3c10.4 36.3 45 30 38.5-5.5-9.4-38.9-46.9-32.1-38.5 5.5z" fill="#fff"/>
 <path class="ast1" d="M27.7 182.2c-4.5 0-9-1.7-13.1-5.1C9 172.5 4.7 165.2 2 156v-.1c-2-9-1.6-17 1.1-23.2 2.5-5.9 7-9.8 12.5-11.1 5.8-1.3 12.2.5 17.5 5 5.8 4.9 10.1 12.8 12.5 22.6v.1c1.5 8.5.9 16.1-1.8 21.9-2.6 5.5-6.9 9.3-12.1 10.5-1.4.3-2.7.5-4 .5zM6.9 154.6c2.4 8.2 6.2 14.6 11 18.5 4 3.3 8.5 4.6 12.6 3.6 7.1-1.7 13-10.5 10.1-26.5-4.4-18.2-15.4-25.8-23.8-23.8-3.9.9-7.1 3.8-9 8.1-2.4 5.3-2.6 12.3-.9 20.1z" fill="#371a45"/>
 <g class="ast5" opacity=".5">
 <path class="ast0" d="M63 123.8c7.8 18 28.4 9.5 24.3-7.2-6.4-20.7-30.8-11.1-24.3 7.2z" fill="#fff"/>
 </g>
 <g class="ast5" opacity=".5">
 <path class="ast0" d="M78.2 151.7c3.4 6.7 12.4 3.2 9.5-4.5-3.4-6.7-12.5-3.1-9.5 4.5z" fill="#fff"/>
 </g>
 <g class="ast5" opacity=".5">
 <path class="ast0" d="M199.3 114.5c3.2-74.8-73.9-74.9-95-56.4 49.1-2.7 74.4 24.6 95 56.4z" fill="#fff"/>
 </g>
 <g class="ast2" opacity=".35">
 <path class="ast1" d="M45.9 157.9c0-5.3-1.4-10.6-3.9-15.4-3.5 25.8-30 18-38.1.7-.9 37.8 38.9 50.4 42 14.7z" fill="#371a45"/>
 </g>
 <path class="ast1" d="M50 116.9c-1.2 0-2.6-.4-4.3-1.4-1.2-.7-1.6-2.3-.9-3.5.7-1.2 2.3-1.6 3.5-.9 1.1.6 1.6.7 1.7.7.2-.2.6-.9.7-2.7.1-1.4-.1-2.7-.1-2.7-.2-1.4.8-2.7 2.2-2.8 1.4-.2 2.7.8 2.8 2.2 0 .1.2 1.8.1 3.8-.2 3.2-1.2 5.4-3 6.5-.6.4-1.6.8-2.7.8z" fill="#371a45"/>
 </symbol>
</svg>
