<svg xmlns="http://www.w3.org/2000/svg">
 <symbol id="mastodon-svg-logo" viewBox="0 0 216.4 232" id=".4894782775789588" xmlns="http://www.w3.org/2000/svg">
 <path class="ast0" d="M185.1 26C149.2-4.1 99.6-7.1 61.1 14.6c-.2 0-.2 0-.4.2-.2 0-.2.2-.4.2-10.8 6.2-20.9 14.5-29.5 24.7C11.7 62.3 3.7 91.8 6.7 127.8c3.4 42 16.1 73.3 23.3 88.1 4 8.2 11.6 13.9 20.5 15.5 1.4.2 3 .4 4.4.4 4.8 0 9.6-1.2 13.9-3.6l69.7-39.9c2.4-1.4 5-2 7.8-2h28.1c2.2 0 4.2-1.2 5.2-3 .6-.8 12.4-21.7 20.1-42.8C228.9 60.1 189.2 29 185.1 26zm-160 106.2h-.6c-3 0-5.8-2.4-6-5.6-.4-4.8-.6-9.4-.6-14.1 0-3.2 2.8-6 6-6 3.4 0 6 2.8 6 6 0 4.2.2 8.6.6 13 .5 3.5-1.9 6.3-5.4 6.7zM28 89.4c-.6 0-1 0-1.6-.2-3.2-.8-5-4.2-4.2-7.4 3.6-13 9.6-24.7 17.9-34.5 2.2-2.6 6-2.8 8.4-.8 2.6 2.2 2.8 6 .8 8.4-7.3 8.6-12.5 18.7-15.5 29.9-.6 3-3 4.6-5.8 4.6zm160.4 46.8c-5.6 15.5-14.1 31.3-17.5 37.9h-24.7c-4.8 0-9.6 1.2-13.9 3.6l-69.7 39.7c-3.2 1.8-6.8 2.4-10.4 1.8-5-.8-9.4-4-11.6-8.6-2.4-4.8-5.2-11.4-8.2-19.7l97.2-75.1c6-4.6 9.6-11.6 10-19.3s-2.6-15.1-8-20.3l-57.4-55c33.1-15.3 73.7-11 103.4 13.9.2.2.4.2.4.4.3.3 37.3 26.6 10.4 100.7z" fill="#fff"/>
 </symbol>
</svg>
